<svg id="visual" viewBox="0 0 1920 1080" width="1920" height="1080" xmlns="http://www.w3.org/2000/svg" xmlns:xlink="http://www.w3.org/1999/xlink" version="1.1"><rect x="0" y="0" width="1920" height="1080" fill="#000000"></rect><defs><linearGradient id="grad1_0" x1="43.8%" y1="100%" x2="100%" y2="0%"><stop offset="14.444444444444446%" stop-color="#000000" stop-opacity="1"></stop><stop offset="85.55555555555554%" stop-color="#000000" stop-opacity="1"></stop></linearGradient></defs><defs><linearGradient id="grad2_0" x1="0%" y1="100%" x2="56.3%" y2="0%"><stop offset="14.444444444444446%" stop-color="#000000" stop-opacity="1"></stop><stop offset="85.55555555555554%" stop-color="#000000" stop-opacity="1"></stop></linearGradient></defs><g transform="translate(1920, 1080)"><path d="M-324 0C-315.7 -43.9 -307.3 -87.8 -283.6 -117.5C-259.9 -147.1 -220.9 -162.5 -194.5 -194.5C-168 -226.4 -154.3 -275 -124 -299.3C-93.7 -323.7 -46.8 -323.8 0 -324L0 0Z" fill="#FA7268"></path></g><g transform="translate(0, 0)"><path d="M324 0C310.2 36.7 296.4 73.5 284.6 117.9C272.7 162.3 262.8 214.3 229.1 229.1C195.4 243.9 137.8 221.4 95.7 231C53.5 240.6 26.8 282.3 0 324L0 0Z" fill="#FA7268"></path></g></svg>