<svg id="visual" viewBox="0 0 900 150" width="900" height="150" xmlns="http://www.w3.org/2000/svg" xmlns:xlink="http://www.w3.org/1999/xlink" version="1.1"><rect x="0" y="0" width="900" height="150" fill="#000000"></rect><path d="M0 107L7.2 103.7C14.3 100.3 28.7 93.7 43 93.7C57.3 93.7 71.7 100.3 86 100.3C100.3 100.3 114.7 93.7 128.8 91.8C143 90 157 93 171.2 95.2C185.3 97.3 199.7 98.7 214 98.2C228.3 97.7 242.7 95.3 257 93.2C271.3 91 285.7 89 300 91.5C314.3 94 328.7 101 343 101C357.3 101 371.7 94 386 93.7C400.3 93.3 414.7 99.7 428.8 100C443 100.3 457 94.7 471.2 91.7C485.3 88.7 499.7 88.3 514 88C528.3 87.7 542.7 87.3 557 88.5C571.3 89.7 585.7 92.3 600 94.8C614.3 97.3 628.7 99.7 643 99.7C657.3 99.7 671.7 97.3 686 98.5C700.3 99.7 714.7 104.3 728.8 105C743 105.7 757 102.3 771.2 100.8C785.3 99.3 799.7 99.7 814 99C828.3 98.3 842.7 96.7 857 94.5C871.3 92.3 885.7 89.7 892.8 88.3L900 87L900 151L892.8 151C885.7 151 871.3 151 857 151C842.7 151 828.3 151 814 151C799.7 151 785.3 151 771.2 151C757 151 743 151 728.8 151C714.7 151 700.3 151 686 151C671.7 151 657.3 151 643 151C628.7 151 614.3 151 600 151C585.7 151 571.3 151 557 151C542.7 151 528.3 151 514 151C499.7 151 485.3 151 471.2 151C457 151 443 151 428.8 151C414.7 151 400.3 151 386 151C371.7 151 357.3 151 343 151C328.7 151 314.3 151 300 151C285.7 151 271.3 151 257 151C242.7 151 228.3 151 214 151C199.7 151 185.3 151 171.2 151C157 151 143 151 128.8 151C114.7 151 100.3 151 86 151C71.7 151 57.3 151 43 151C28.7 151 14.3 151 7.2 151L0 151Z" fill="#fa7268"></path><path d="M0 99L7.2 99.8C14.3 100.7 28.7 102.3 43 102.2C57.3 102 71.7 100 86 101.3C100.3 102.7 114.7 107.3 128.8 108.2C143 109 157 106 171.2 103.2C185.3 100.3 199.7 97.7 214 98.5C228.3 99.3 242.7 103.7 257 104C271.3 104.3 285.7 100.7 300 101.3C314.3 102 328.7 107 343 107.5C357.3 108 371.7 104 386 101.2C400.3 98.3 414.7 96.7 428.8 97C443 97.3 457 99.7 471.2 102.8C485.3 106 499.7 110 514 109C528.3 108 542.7 102 557 100.2C571.3 98.3 585.7 100.7 600 103.5C614.3 106.3 628.7 109.7 643 108.8C657.3 108 671.7 103 686 100.3C700.3 97.7 714.7 97.3 728.8 96.8C743 96.3 757 95.7 771.2 96.7C785.3 97.7 799.7 100.3 814 103C828.3 105.7 842.7 108.3 857 106.8C871.3 105.3 885.7 99.7 892.8 96.8L900 94L900 151L892.8 151C885.7 151 871.3 151 857 151C842.7 151 828.3 151 814 151C799.7 151 785.3 151 771.2 151C757 151 743 151 728.8 151C714.7 151 700.3 151 686 151C671.7 151 657.3 151 643 151C628.7 151 614.3 151 600 151C585.7 151 571.3 151 557 151C542.7 151 528.3 151 514 151C499.7 151 485.3 151 471.2 151C457 151 443 151 428.8 151C414.7 151 400.3 151 386 151C371.7 151 357.3 151 343 151C328.7 151 314.3 151 300 151C285.7 151 271.3 151 257 151C242.7 151 228.3 151 214 151C199.7 151 185.3 151 171.2 151C157 151 143 151 128.8 151C114.7 151 100.3 151 86 151C71.7 151 57.3 151 43 151C28.7 151 14.3 151 7.2 151L0 151Z" fill="#f36567"></path><path d="M0 119L7.2 118.3C14.3 117.7 28.7 116.3 43 115C57.3 113.7 71.7 112.3 86 111.2C100.3 110 114.7 109 128.8 108.7C143 108.3 157 108.7 171.2 108.5C185.3 108.3 199.7 107.7 214 108.5C228.3 109.3 242.7 111.7 257 113.8C271.3 116 285.7 118 300 118.7C314.3 119.3 328.7 118.7 343 118C357.3 117.3 371.7 116.7 386 114.7C400.3 112.7 414.7 109.3 428.8 107.8C443 106.3 457 106.7 471.2 108.7C485.3 110.7 499.7 114.3 514 116.5C528.3 118.7 542.7 119.3 557 117.8C571.3 116.3 585.7 112.7 600 110.5C614.3 108.3 628.7 107.7 643 108.5C657.3 109.3 671.7 111.7 686 113.2C700.3 114.7 714.7 115.3 728.8 115.2C743 115 757 114 771.2 113.8C785.3 113.7 799.7 114.3 814 113.2C828.3 112 842.7 109 857 108C871.3 107 885.7 108 892.8 108.5L900 109L900 151L892.8 151C885.7 151 871.3 151 857 151C842.7 151 828.3 151 814 151C799.7 151 785.3 151 771.2 151C757 151 743 151 728.8 151C714.7 151 700.3 151 686 151C671.7 151 657.3 151 643 151C628.7 151 614.3 151 600 151C585.7 151 571.3 151 557 151C542.7 151 528.3 151 514 151C499.7 151 485.3 151 471.2 151C457 151 443 151 428.8 151C414.7 151 400.3 151 386 151C371.7 151 357.3 151 343 151C328.7 151 314.3 151 300 151C285.7 151 271.3 151 257 151C242.7 151 228.3 151 214 151C199.7 151 185.3 151 171.2 151C157 151 143 151 128.8 151C114.7 151 100.3 151 86 151C71.7 151 57.3 151 43 151C28.7 151 14.3 151 7.2 151L0 151Z" fill="#eb5967"></path><path d="M0 118L7.2 117.7C14.3 117.3 28.7 116.7 43 116C57.3 115.3 71.7 114.7 86 114.8C100.3 115 114.7 116 128.8 116.2C143 116.3 157 115.7 171.2 115C185.3 114.3 199.7 113.7 214 114.8C228.3 116 242.7 119 257 120.8C271.3 122.7 285.7 123.3 300 123.7C314.3 124 328.7 124 343 124C357.3 124 371.7 124 386 123.2C400.3 122.3 414.7 120.7 428.8 118.5C443 116.3 457 113.7 471.2 112.3C485.3 111 499.7 111 514 112.7C528.3 114.3 542.7 117.7 557 118.5C571.3 119.3 585.7 117.7 600 117.3C614.3 117 628.7 118 643 119.2C657.3 120.3 671.7 121.7 686 121.5C700.3 121.3 714.7 119.7 728.8 119.7C743 119.7 757 121.3 771.2 120.5C785.3 119.7 799.7 116.3 814 116.7C828.3 117 842.7 121 857 120.8C871.3 120.7 885.7 116.3 892.8 114.2L900 112L900 151L892.8 151C885.7 151 871.3 151 857 151C842.7 151 828.3 151 814 151C799.7 151 785.3 151 771.2 151C757 151 743 151 728.8 151C714.7 151 700.3 151 686 151C671.7 151 657.3 151 643 151C628.7 151 614.3 151 600 151C585.7 151 571.3 151 557 151C542.7 151 528.3 151 514 151C499.7 151 485.3 151 471.2 151C457 151 443 151 428.8 151C414.7 151 400.3 151 386 151C371.7 151 357.3 151 343 151C328.7 151 314.3 151 300 151C285.7 151 271.3 151 257 151C242.7 151 228.3 151 214 151C199.7 151 185.3 151 171.2 151C157 151 143 151 128.8 151C114.7 151 100.3 151 86 151C71.7 151 57.3 151 43 151C28.7 151 14.3 151 7.2 151L0 151Z" fill="#e34c67"></path><path d="M0 132L7.2 131.2C14.3 130.3 28.7 128.7 43 127.2C57.3 125.7 71.7 124.3 86 124.8C100.3 125.3 114.7 127.7 128.8 128C143 128.3 157 126.7 171.2 125.7C185.3 124.7 199.7 124.3 214 124.5C228.3 124.7 242.7 125.3 257 126C271.3 126.7 285.7 127.3 300 128.3C314.3 129.3 328.7 130.7 343 129.8C357.3 129 371.7 126 386 123.8C400.3 121.7 414.7 120.3 428.8 120.5C443 120.7 457 122.3 471.2 122.7C485.3 123 499.7 122 514 122.8C528.3 123.7 542.7 126.3 557 126.3C571.3 126.3 585.7 123.7 600 123.2C614.3 122.7 628.7 124.3 643 124C657.3 123.7 671.7 121.3 686 120.3C700.3 119.3 714.7 119.7 728.8 120.2C743 120.7 757 121.3 771.2 123.5C785.3 125.7 799.7 129.3 814 129C828.3 128.7 842.7 124.3 857 123C871.3 121.7 885.7 123.3 892.8 124.2L900 125L900 151L892.8 151C885.7 151 871.3 151 857 151C842.7 151 828.3 151 814 151C799.7 151 785.3 151 771.2 151C757 151 743 151 728.8 151C714.7 151 700.3 151 686 151C671.7 151 657.3 151 643 151C628.7 151 614.3 151 600 151C585.7 151 571.3 151 557 151C542.7 151 528.3 151 514 151C499.7 151 485.3 151 471.2 151C457 151 443 151 428.8 151C414.7 151 400.3 151 386 151C371.7 151 357.3 151 343 151C328.7 151 314.3 151 300 151C285.7 151 271.3 151 257 151C242.7 151 228.3 151 214 151C199.7 151 185.3 151 171.2 151C157 151 143 151 128.8 151C114.7 151 100.3 151 86 151C71.7 151 57.3 151 43 151C28.7 151 14.3 151 7.2 151L0 151Z" fill="#da3f67"></path><path d="M0 137L7.2 135.7C14.3 134.3 28.7 131.7 43 131.7C57.3 131.7 71.7 134.3 86 135.3C100.3 136.3 114.7 135.7 128.8 135.3C143 135 157 135 171.2 133.7C185.3 132.3 199.7 129.7 214 129.8C228.3 130 242.7 133 257 133.8C271.3 134.7 285.7 133.3 300 133.3C314.3 133.3 328.7 134.7 343 134.5C357.3 134.3 371.7 132.7 386 132.3C400.3 132 414.7 133 428.8 133.8C443 134.7 457 135.3 471.2 135.7C485.3 136 499.7 136 514 135.3C528.3 134.7 542.7 133.3 557 133.7C571.3 134 585.7 136 600 136C614.3 136 628.7 134 643 133.8C657.3 133.7 671.7 135.3 686 135.8C700.3 136.3 714.7 135.7 728.8 134.8C743 134 757 133 771.2 132.3C785.3 131.7 799.7 131.3 814 131.5C828.3 131.7 842.7 132.3 857 132.8C871.3 133.3 885.7 133.7 892.8 133.8L900 134L900 151L892.8 151C885.7 151 871.3 151 857 151C842.7 151 828.3 151 814 151C799.7 151 785.3 151 771.2 151C757 151 743 151 728.8 151C714.7 151 700.3 151 686 151C671.7 151 657.3 151 643 151C628.7 151 614.3 151 600 151C585.7 151 571.3 151 557 151C542.7 151 528.3 151 514 151C499.7 151 485.3 151 471.2 151C457 151 443 151 428.8 151C414.7 151 400.3 151 386 151C371.7 151 357.3 151 343 151C328.7 151 314.3 151 300 151C285.7 151 271.3 151 257 151C242.7 151 228.3 151 214 151C199.7 151 185.3 151 171.2 151C157 151 143 151 128.8 151C114.7 151 100.3 151 86 151C71.7 151 57.3 151 43 151C28.7 151 14.3 151 7.2 151L0 151Z" fill="#d03267"></path><path d="M0 138L7.2 138.7C14.3 139.3 28.7 140.7 43 141.5C57.3 142.3 71.7 142.7 86 142.5C100.3 142.3 114.7 141.7 128.8 141.2C143 140.7 157 140.3 171.2 140.3C185.3 140.3 199.7 140.7 214 140.5C228.3 140.3 242.7 139.7 257 140C271.3 140.3 285.7 141.7 300 142C314.3 142.3 328.7 141.7 343 141.2C357.3 140.7 371.7 140.3 386 140.7C400.3 141 414.7 142 428.8 141.7C443 141.3 457 139.7 471.2 139.3C485.3 139 499.7 140 514 140.8C528.3 141.7 542.7 142.3 557 141.7C571.3 141 585.7 139 600 137.8C614.3 136.7 628.7 136.3 643 137.3C657.3 138.3 671.7 140.7 686 140.8C700.3 141 714.7 139 728.8 137.7C743 136.3 757 135.7 771.2 135.3C785.3 135 799.7 135 814 135C828.3 135 842.7 135 857 135.8C871.3 136.7 885.7 138.3 892.8 139.2L900 140L900 151L892.8 151C885.7 151 871.3 151 857 151C842.7 151 828.3 151 814 151C799.7 151 785.3 151 771.2 151C757 151 743 151 728.8 151C714.7 151 700.3 151 686 151C671.7 151 657.3 151 643 151C628.7 151 614.3 151 600 151C585.7 151 571.3 151 557 151C542.7 151 528.3 151 514 151C499.7 151 485.3 151 471.2 151C457 151 443 151 428.8 151C414.7 151 400.3 151 386 151C371.7 151 357.3 151 343 151C328.7 151 314.3 151 300 151C285.7 151 271.3 151 257 151C242.7 151 228.3 151 214 151C199.7 151 185.3 151 171.2 151C157 151 143 151 128.8 151C114.7 151 100.3 151 86 151C71.7 151 57.3 151 43 151C28.7 151 14.3 151 7.2 151L0 151Z" fill="#c62368"></path></svg>