<svg id="visual" viewBox="0 0 900 250" width="900" height="250" xmlns="http://www.w3.org/2000/svg" xmlns:xlink="http://www.w3.org/1999/xlink" version="1.1"><rect x="0" y="0" width="900" height="250" fill="#001220"></rect><path d="M0 159L21.5 158.8C43 158.7 86 158.3 128.8 162.2C171.7 166 214.3 174 257.2 171.8C300 169.7 343 157.3 385.8 153.7C428.7 150 471.3 155 514.2 157C557 159 600 158 642.8 157.3C685.7 156.7 728.3 156.3 771.2 158.2C814 160 857 164 878.5 166L900 168L900 251L878.5 251C857 251 814 251 771.2 251C728.3 251 685.7 251 642.8 251C600 251 557 251 514.2 251C471.3 251 428.7 251 385.8 251C343 251 300 251 257.2 251C214.3 251 171.7 251 128.8 251C86 251 43 251 21.5 251L0 251Z" fill="#fa7268"></path><path d="M0 187L21.5 189C43 191 86 195 128.8 196.8C171.7 198.7 214.3 198.3 257.2 192.8C300 187.3 343 176.7 385.8 176.2C428.7 175.7 471.3 185.3 514.2 185.5C557 185.7 600 176.3 642.8 171C685.7 165.7 728.3 164.3 771.2 168.3C814 172.3 857 181.7 878.5 186.3L900 191L900 251L878.5 251C857 251 814 251 771.2 251C728.3 251 685.7 251 642.8 251C600 251 557 251 514.2 251C471.3 251 428.7 251 385.8 251C343 251 300 251 257.2 251C214.3 251 171.7 251 128.8 251C86 251 43 251 21.5 251L0 251Z" fill="#ef5f67"></path><path d="M0 201L21.5 201.2C43 201.3 86 201.7 128.8 199C171.7 196.3 214.3 190.7 257.2 188.8C300 187 343 189 385.8 193.3C428.7 197.7 471.3 204.3 514.2 206.7C557 209 600 207 642.8 206.3C685.7 205.7 728.3 206.3 771.2 206.2C814 206 857 205 878.5 204.5L900 204L900 251L878.5 251C857 251 814 251 771.2 251C728.3 251 685.7 251 642.8 251C600 251 557 251 514.2 251C471.3 251 428.7 251 385.8 251C343 251 300 251 257.2 251C214.3 251 171.7 251 128.8 251C86 251 43 251 21.5 251L0 251Z" fill="#e34c67"></path><path d="M0 209L21.5 210C43 211 86 213 128.8 213.2C171.7 213.3 214.3 211.7 257.2 213.3C300 215 343 220 385.8 220.5C428.7 221 471.3 217 514.2 214C557 211 600 209 642.8 210.5C685.7 212 728.3 217 771.2 215.8C814 214.7 857 207.3 878.5 203.7L900 200L900 251L878.5 251C857 251 814 251 771.2 251C728.3 251 685.7 251 642.8 251C600 251 557 251 514.2 251C471.3 251 428.7 251 385.8 251C343 251 300 251 257.2 251C214.3 251 171.7 251 128.8 251C86 251 43 251 21.5 251L0 251Z" fill="#d53867"></path><path d="M0 221L21.5 221.7C43 222.3 86 223.7 128.8 226.3C171.7 229 214.3 233 257.2 234.2C300 235.3 343 233.7 385.8 232.5C428.7 231.3 471.3 230.7 514.2 230.7C557 230.7 600 231.3 642.8 232.8C685.7 234.3 728.3 236.7 771.2 237.3C814 238 857 237 878.5 236.5L900 236L900 251L878.5 251C857 251 814 251 771.2 251C728.3 251 685.7 251 642.8 251C600 251 557 251 514.2 251C471.3 251 428.7 251 385.8 251C343 251 300 251 257.2 251C214.3 251 171.7 251 128.8 251C86 251 43 251 21.5 251L0 251Z" fill="#c62368"></path></svg>